<svg width="479" height="338" viewBox="0 0 479 338" fill="none" xmlns="http://www.w3.org/2000/svg">
<path d="M112.5 10.0001V18.8038C112.5 10.0538 112.505 10.0004 112.51 10.0001H112.55C112.571 10.0002 112.596 10.0009 112.625 10.0011C112.684 10.0015 112.762 10.0017 112.855 10.0031C113.043 10.0058 113.298 10.0108 113.616 10.0206C114.252 10.0402 115.143 10.0783 116.252 10.1515C118.466 10.2976 121.57 10.5857 125.271 11.1554C132.624 12.2871 142.592 14.5693 152.692 19.2335C162.813 23.9071 173.352 31.1098 181.358 42.2023C189.439 53.3979 194.5 67.954 194.5 86.5001C194.5 116.82 180.984 135.621 164.396 146.633C163.248 147.396 162.086 148.118 160.919 148.804C164.729 150.383 168.544 152.279 172.27 154.554C192.697 167.026 209 189.993 209 229.5C209 253.215 203.146 271.668 193.849 285.856C184.587 299.989 172.296 309.303 160.284 315.413C148.315 321.502 136.464 324.496 127.688 325.984C123.276 326.732 119.577 327.11 116.941 327.302C115.622 327.398 114.564 327.447 113.811 327.473C113.434 327.486 113.132 327.493 112.912 327.496C112.802 327.498 112.712 327.499 112.644 327.499C112.609 327.499 112.58 327.5 112.556 327.5H112.511C112.508 327.5 112.505 327.475 112.503 326.25L112.5 317.5V327.5H10V10.0001H112.5Z" stroke="#FF9000" stroke-width="20"/>
<path d="M315.784 10V20H305.784L315.784 20.002V124.155C316.201 124.338 316.663 124.529 317.175 124.724C319.852 125.744 323.308 126.695 327.435 127.507C335.682 129.129 345.853 130.046 356.23 130.126C366.612 130.206 376.841 129.444 385.22 127.866C390.9 126.797 394.957 125.486 397.595 124.271V20.002C397.595 20.0009 397.595 20 407.595 20H397.595V10H468.5V327H397.595V317H407.595L397.595 316.999V194.81C397.563 194.801 397.53 194.793 397.498 194.784C394.707 194.066 391.022 193.435 386.586 192.935C377.739 191.936 366.742 191.546 355.666 191.695C344.601 191.845 333.737 192.53 325.186 193.609C321.425 194.084 318.256 194.615 315.784 195.172V316.999C315.784 317 315.784 317 305.784 317H315.784V327H242.5V10H315.784Z" stroke="#BF4F00" stroke-width="20"/>
</svg>
