<svg width="180" height="180" viewBox="0 0 180 180" fill="none" xmlns="http://www.w3.org/2000/svg">
<g clip-path="url(#clip0_3_214)">
<rect x="50" y="31" width="82" height="108" fill="white"/>
<g filter="url(#filter0_d_3_214)">
<path fill-rule="evenodd" clip-rule="evenodd" d="M37.3866 15C27.1159 15 19.5163 23.9893 19.8565 33.7383C20.1829 43.1044 19.7588 55.2346 16.7049 65.1269C13.6419 75.048 8.4615 81.333 0 82.14V91.2495C8.4615 92.0565 13.6419 98.3415 16.7049 108.263C19.7588 118.155 20.1829 130.285 19.8565 139.651C19.5163 149.399 27.1159 158.389 37.3881 158.389H142.627C152.898 158.389 160.496 149.401 160.156 139.651C159.829 130.285 160.253 118.155 163.307 108.263C166.372 98.3415 171.538 92.0565 180 91.2495V82.14C171.538 81.333 166.372 75.048 163.307 65.1269C160.253 55.2361 159.829 43.1044 160.156 33.7383C160.496 23.9908 152.898 15 142.627 15H37.3866ZM122.034 103.265C122.034 116.689 112.021 124.831 95.4045 124.831H67.1186C66.3095 124.831 65.5335 124.509 64.9614 123.937C64.3892 123.364 64.0678 122.589 64.0678 121.78V51.6102C64.0678 50.801 64.3892 50.0251 64.9614 49.4529C65.5335 48.8807 66.3095 48.5593 67.1186 48.5593H95.2432C109.098 48.5593 118.191 56.0644 118.191 67.5874C118.191 75.675 112.075 82.9162 104.281 84.1837V84.6067C114.89 85.7707 122.034 93.117 122.034 103.265ZM92.3205 58.2305H76.1917V81.0112H89.7758C100.277 81.0112 106.067 76.7827 106.067 69.2243C106.067 62.1417 101.088 58.2305 92.3205 58.2305ZM76.1917 90.051V115.156H92.9137C103.846 115.156 109.638 110.769 109.638 102.524C109.638 94.278 103.685 90.0495 92.2103 90.0495L76.1917 90.051Z" fill="#C300D5"/>
</g>
</g>
<defs>
<filter id="filter0_d_3_214" x="0" y="15" width="185" height="148.389" filterUnits="userSpaceOnUse" color-interpolation-filters="sRGB">
<feFlood flood-opacity="0" result="BackgroundImageFix"/>
<feColorMatrix in="SourceAlpha" type="matrix" values="0 0 0 0 0 0 0 0 0 0 0 0 0 0 0 0 0 0 127 0" result="hardAlpha"/>
<feOffset dx="5" dy="5"/>
<feComposite in2="hardAlpha" operator="out"/>
<feColorMatrix type="matrix" values="0 0 0 0 0 0 0 0 0 0 0 0 0 0 0 0 0 0 0.25 0"/>
<feBlend mode="normal" in2="BackgroundImageFix" result="effect1_dropShadow_3_214"/>
<feBlend mode="normal" in="SourceGraphic" in2="effect1_dropShadow_3_214" result="shape"/>
</filter>
<clipPath id="clip0_3_214">
<rect width="180" height="180" fill="white"/>
</clipPath>
</defs>
</svg>
