<svg width="130" height="130" viewBox="0 0 130 130" fill="none" xmlns="http://www.w3.org/2000/svg">
<g filter="url(#filter0_d_3_201)">
<g clip-path="url(#clip0_3_201)">
<path d="M0 0H125V125H0V0Z" fill="#F7DF1E"/>
<path d="M32.8672 104.459L42.4326 98.6699C44.2783 101.942 45.957 104.71 49.9839 104.71C53.8438 104.71 56.2778 103.201 56.2778 97.3276V57.3872H68.0244V97.4937C68.0244 109.66 60.8926 115.198 50.4873 115.198C41.0903 115.198 35.6357 110.332 32.8667 104.458M74.4048 103.2L83.9692 97.6626C86.4873 101.774 89.7598 104.795 95.5488 104.795C100.417 104.795 103.52 102.361 103.52 99.0049C103.52 94.9775 100.332 93.5508 94.9614 91.2021L92.0254 89.9424C83.5503 86.3354 77.9287 81.8042 77.9287 72.2388C77.9287 63.4282 84.6411 56.7153 95.1299 56.7153C102.598 56.7153 107.968 59.3169 111.827 66.1133L102.681 71.9873C100.667 68.3794 98.4858 66.9531 95.1294 66.9531C91.689 66.9531 89.5073 69.1348 89.5073 71.9873C89.5073 75.5112 91.689 76.9385 96.7232 79.1201L99.6597 80.3784C109.645 84.6582 115.267 89.021 115.267 98.8374C115.267 109.411 106.96 115.2 95.8003 115.2C84.8926 115.2 77.8442 109.998 74.4043 103.201" fill="black"/>
</g>
</g>
<defs>
<filter id="filter0_d_3_201" x="0" y="0" width="130" height="130" filterUnits="userSpaceOnUse" color-interpolation-filters="sRGB">
<feFlood flood-opacity="0" result="BackgroundImageFix"/>
<feColorMatrix in="SourceAlpha" type="matrix" values="0 0 0 0 0 0 0 0 0 0 0 0 0 0 0 0 0 0 127 0" result="hardAlpha"/>
<feOffset dx="5" dy="5"/>
<feComposite in2="hardAlpha" operator="out"/>
<feColorMatrix type="matrix" values="0 0 0 0 0 0 0 0 0 0 0 0 0 0 0 0 0 0 0.25 0"/>
<feBlend mode="normal" in2="BackgroundImageFix" result="effect1_dropShadow_3_201"/>
<feBlend mode="normal" in="SourceGraphic" in2="effect1_dropShadow_3_201" result="shape"/>
</filter>
<clipPath id="clip0_3_201">
<rect width="125" height="125" rx="10" fill="white"/>
</clipPath>
</defs>
</svg>
